# xmcd
#
# Track frame offsets: 
#        150
#        20690
#        46744
#        68848
#        96788
#        118786
#        141969
#        165249
#        177147
#        202004
#        219090
#
# Disc length: 3242 seconds
#
# Revision: 1
# Processed by: cddbd v1.5.2PL0 Copyright (c) Steve Scherf et al.
# Submitted via: ExactAudioCopy v0.95b4
#
DISCID=920ca80b
DTITLE=Various Artist - Jazz Moods - Twilight In Rio
DYEAR=2004
DGENRE=Jazz
TTITLE0=Triste - Charlie Byrd
TTITLE1=Desafinado - Manfredo Fest
TTITLE2=Bom Bom Bom Tchi Tchi Tchi - Tania Maria
TTITLE3=Aguas De Marco (The Waters Of March) - JoAnne Brackeen
TTITLE4=Estate - Toots Thielemans
TTITLE5=Samba Saravah - Karrin Allyson
TTITLE6=Voce E Eu (You And I) - Manfredo Fest
TTITLE7=Samba De Una Nota (One Note Samba) - Carlos Barbosa-Lima
TTITLE8=Desesperar Jamais - Hendrik Meurkens
TTITLE9=Aquaerele Do Brasil - Trio Da Paz
TTITLE10=Favela - Charlie Byrd
EXTD=YEAR: 2004
EXTT0=
EXTT1=
EXTT2=
EXTT3=
EXTT4=
EXTT5=
EXTT6=
EXTT7=
EXTT8=
EXTT9=
EXTT10=
PLAYORDER=
